<svg xmlns="http://www.w3.org/2000/svg" xmlns:xlink="http://www.w3.org/1999/xlink" width="500" zoomAndPan="magnify" viewBox="0 0 375 374.999991" height="500" preserveAspectRatio="xMidYMid meet" version="1.0"><defs><g/><clipPath id="d6ef2219e1"><path d="M 43.132812 63.34375 L 331.882812 63.34375 L 331.882812 311.59375 L 43.132812 311.59375 Z M 43.132812 63.34375 " clip-rule="nonzero"/></clipPath><clipPath id="938ae063ee"><path d="M 43.132812 63.34375 L 331.882812 63.34375 L 331.882812 311.59375 L 43.132812 311.59375 Z M 43.132812 63.34375 " clip-rule="nonzero"/></clipPath><clipPath id="f407cc8a55"><path d="M 141.710938 192.304688 L 166.460938 192.304688 L 166.460938 210.957031 L 141.710938 210.957031 Z M 141.710938 192.304688 " clip-rule="nonzero"/></clipPath><clipPath id="2acf8be6fa"><path d="M 141.824219 104.460938 L 230.660156 104.460938 L 230.660156 188.832031 L 141.824219 188.832031 Z M 141.824219 104.460938 " clip-rule="nonzero"/></clipPath><clipPath id="79fc892048"><path d="M 166.40625 185.21875 L 166.40625 167.308594 L 198.164062 167.308594 C 227.449219 144.757812 227.539062 113.773438 230.660156 104.460938 L 208.824219 104.460938 L 208.824219 145.710938 L 166.40625 145.710938 L 166.40625 104.460938 L 141.824219 104.460938 L 141.824219 186.664062 C 146.1875 189.476562 154.050781 189.933594 166.40625 185.21875 Z M 166.40625 185.21875 " clip-rule="nonzero"/></clipPath><clipPath id="fe15158e1f"><path d="M 166.40625 185.21875 L 166.40625 167.308594 L 198.164062 167.308594 C 227.449219 144.757812 227.539062 113.773438 230.660156 104.460938 L 208.824219 104.460938 L 208.824219 145.710938 L 166.40625 145.710938 L 166.40625 104.460938 L 141.824219 104.460938 L 141.824219 186.664062 C 146.1875 189.476562 154.050781 189.933594 166.40625 185.21875 " clip-rule="nonzero"/></clipPath><radialGradient gradientTransform="matrix(0.999627, 0, 0, 1.000373, 144.121965, 103.344208)" gradientUnits="userSpaceOnUse" r="85.988573" cx="0" id="8894b1680a" cy="0" fx="0" fy="0"><stop stop-opacity="1" stop-color="rgb(50.004578%, 50.804138%, 52.003479%)" offset="0"/><stop stop-opacity="1" stop-color="rgb(49.742126%, 50.541687%, 51.741028%)" offset="0.0078125"/><stop stop-opacity="1" stop-color="rgb(49.536133%, 50.337219%, 51.53656%)" offset="0.0117188"/><stop stop-opacity="1" stop-color="rgb(49.328613%, 50.1297%, 51.329041%)" offset="0.0234375"/><stop stop-opacity="1" stop-color="rgb(49.064636%, 49.865723%, 51.065063%)" offset="0.0351562"/><stop stop-opacity="1" stop-color="rgb(48.803711%, 49.604797%, 50.804138%)" offset="0.046875"/><stop stop-opacity="1" stop-color="rgb(48.674011%, 49.473572%, 50.674438%)" offset="0.0507812"/><stop stop-opacity="1" stop-color="rgb(48.538208%, 49.339294%, 50.538635%)" offset="0.0546875"/><stop stop-opacity="1" stop-color="rgb(48.396301%, 49.197388%, 50.396729%)" offset="0.0585938"/><stop stop-opacity="1" stop-color="rgb(48.262024%, 49.055481%, 50.256348%)" offset="0.0625"/><stop stop-opacity="1" stop-color="rgb(48.196411%, 48.791504%, 49.992371%)" offset="0.0664062"/><stop stop-opacity="1" stop-color="rgb(47.999573%, 48.599243%, 49.798584%)" offset="0.078125"/><stop stop-opacity="1" stop-color="rgb(47.65625%, 48.405457%, 49.606323%)" offset="0.0898438"/><stop stop-opacity="1" stop-color="rgb(47.441101%, 48.143005%, 49.343872%)" offset="0.101562"/><stop stop-opacity="1" stop-color="rgb(47.30072%, 48.001099%, 49.201965%)" offset="0.105469"/><stop stop-opacity="1" stop-color="rgb(47.164917%, 47.860718%, 49.060059%)" offset="0.109375"/><stop stop-opacity="1" stop-color="rgb(47.099304%, 47.645569%, 48.794556%)" offset="0.113281"/><stop stop-opacity="1" stop-color="rgb(46.903992%, 47.499084%, 48.403931%)" offset="0.125"/><stop stop-opacity="1" stop-color="rgb(46.636963%, 47.433472%, 48.204041%)" offset="0.136719"/><stop stop-opacity="1" stop-color="rgb(46.495056%, 47.296143%, 48.199463%)" offset="0.140625"/><stop stop-opacity="1" stop-color="rgb(46.362305%, 47.154236%, 48.191833%)" offset="0.144531"/><stop stop-opacity="1" stop-color="rgb(46.296692%, 46.888733%, 47.988892%)" offset="0.148438"/><stop stop-opacity="1" stop-color="rgb(46.098328%, 46.498108%, 47.648621%)" offset="0.160156"/><stop stop-opacity="1" stop-color="rgb(45.707703%, 46.107483%, 47.306824%)" offset="0.171875"/><stop stop-opacity="1" stop-color="rgb(45.4422%, 45.906067%, 47.105408%)" offset="0.183594"/><stop stop-opacity="1" stop-color="rgb(45.23468%, 45.828247%, 47.029114%)" offset="0.1875"/><stop stop-opacity="1" stop-color="rgb(45.033264%, 45.562744%, 46.763611%)" offset="0.199219"/><stop stop-opacity="1" stop-color="rgb(44.902039%, 45.301819%, 46.502686%)" offset="0.210938"/><stop stop-opacity="1" stop-color="rgb(44.772339%, 45.172119%, 46.37146%)" offset="0.214844"/><stop stop-opacity="1" stop-color="rgb(44.636536%, 45.036316%, 46.237183%)" offset="0.21875"/><stop stop-opacity="1" stop-color="rgb(44.494629%, 44.894409%, 46.095276%)" offset="0.222656"/><stop stop-opacity="1" stop-color="rgb(44.354248%, 44.761658%, 45.953369%)" offset="0.226562"/><stop stop-opacity="1" stop-color="rgb(44.091797%, 44.696045%, 45.690918%)" offset="0.230469"/><stop stop-opacity="1" stop-color="rgb(43.899536%, 44.497681%, 45.498657%)" offset="0.242188"/><stop stop-opacity="1" stop-color="rgb(43.70575%, 44.107056%, 45.304871%)" offset="0.253906"/><stop stop-opacity="1" stop-color="rgb(43.505859%, 43.90564%, 45.10498%)" offset="0.261719"/><stop stop-opacity="1" stop-color="rgb(43.400574%, 43.800354%, 45.001221%)" offset="0.269531"/><stop stop-opacity="1" stop-color="rgb(43.200684%, 43.600464%, 44.801331%)" offset="0.273438"/><stop stop-opacity="1" stop-color="rgb(42.997742%, 43.397522%, 44.596863%)" offset="0.28125"/><stop stop-opacity="1" stop-color="rgb(42.796326%, 43.197632%, 44.396973%)" offset="0.289062"/><stop stop-opacity="1" stop-color="rgb(42.630005%, 43.006897%, 44.206238%)" offset="0.296875"/><stop stop-opacity="1" stop-color="rgb(42.480469%, 42.807007%, 44.006348%)" offset="0.304688"/><stop stop-opacity="1" stop-color="rgb(42.29126%, 42.617798%, 43.791199%)" offset="0.3125"/><stop stop-opacity="1" stop-color="rgb(42.09137%, 42.468262%, 43.487549%)" offset="0.320312"/><stop stop-opacity="1" stop-color="rgb(41.900635%, 42.300415%, 43.196106%)" offset="0.328125"/><stop stop-opacity="1" stop-color="rgb(41.700745%, 42.100525%, 43.005371%)" offset="0.335938"/><stop stop-opacity="1" stop-color="rgb(41.496277%, 41.897583%, 42.805481%)" offset="0.34375"/><stop stop-opacity="1" stop-color="rgb(41.296387%, 41.696167%, 42.616272%)" offset="0.351562"/><stop stop-opacity="1" stop-color="rgb(41.093445%, 41.493225%, 42.466736%)" offset="0.359375"/><stop stop-opacity="1" stop-color="rgb(40.893555%, 41.293335%, 42.298889%)" offset="0.367188"/><stop stop-opacity="1" stop-color="rgb(40.70282%, 41.1026%, 42.098999%)" offset="0.375"/><stop stop-opacity="1" stop-color="rgb(40.50293%, 40.90271%, 41.908264%)" offset="0.382812"/><stop stop-opacity="1" stop-color="rgb(40.299988%, 40.699768%, 41.708374%)" offset="0.390625"/><stop stop-opacity="1" stop-color="rgb(40.100098%, 40.499878%, 41.491699%)" offset="0.398438"/><stop stop-opacity="1" stop-color="rgb(39.897156%, 40.296936%, 41.291809%)" offset="0.40625"/><stop stop-opacity="1" stop-color="rgb(39.697266%, 40.097046%, 41.101074%)" offset="0.414062"/><stop stop-opacity="1" stop-color="rgb(39.506531%, 39.906311%, 40.901184%)" offset="0.421875"/><stop stop-opacity="1" stop-color="rgb(39.306641%, 39.706421%, 40.698242%)" offset="0.429688"/><stop stop-opacity="1" stop-color="rgb(39.091492%, 39.491272%, 40.498352%)" offset="0.4375"/><stop stop-opacity="1" stop-color="rgb(38.890076%, 39.291382%, 40.29541%)" offset="0.445312"/><stop stop-opacity="1" stop-color="rgb(38.699341%, 39.100647%, 40.09552%)" offset="0.453125"/><stop stop-opacity="1" stop-color="rgb(38.499451%, 38.900757%, 39.904785%)" offset="0.460938"/><stop stop-opacity="1" stop-color="rgb(38.296509%, 38.696289%, 39.704895%)" offset="0.46875"/><stop stop-opacity="1" stop-color="rgb(38.096619%, 38.496399%, 39.489746%)" offset="0.476562"/><stop stop-opacity="1" stop-color="rgb(37.893677%, 38.293457%, 39.18457%)" offset="0.484375"/><stop stop-opacity="1" stop-color="rgb(37.693787%, 37.994385%, 38.893127%)" offset="0.492188"/><stop stop-opacity="1" stop-color="rgb(37.454224%, 37.698364%, 38.604736%)" offset="0.5"/><stop stop-opacity="1" stop-color="rgb(37.239075%, 37.550354%, 38.340759%)" offset="0.515625"/><stop stop-opacity="1" stop-color="rgb(37.098694%, 37.449646%, 38.198853%)" offset="0.519531"/><stop stop-opacity="1" stop-color="rgb(36.962891%, 37.341309%, 38.058472%)" offset="0.523438"/><stop stop-opacity="1" stop-color="rgb(36.897278%, 37.09259%, 37.792969%)" offset="0.527344"/><stop stop-opacity="1" stop-color="rgb(36.701965%, 36.701965%, 37.599182%)" offset="0.539062"/><stop stop-opacity="1" stop-color="rgb(36.31134%, 36.31134%, 37.45575%)" offset="0.550781"/><stop stop-opacity="1" stop-color="rgb(36.045837%, 36.106873%, 37.243652%)" offset="0.5625"/><stop stop-opacity="1" stop-color="rgb(35.903931%, 36.099243%, 37.103271%)" offset="0.566406"/><stop stop-opacity="1" stop-color="rgb(35.766602%, 36.094666%, 36.962891%)" offset="0.570312"/><stop stop-opacity="1" stop-color="rgb(35.699463%, 35.896301%, 36.697388%)" offset="0.574219"/><stop stop-opacity="1" stop-color="rgb(35.50415%, 35.505676%, 36.500549%)" offset="0.585938"/><stop stop-opacity="1" stop-color="rgb(35.240173%, 35.240173%, 36.433411%)" offset="0.597656"/><stop stop-opacity="1" stop-color="rgb(35.098267%, 35.098267%, 36.297607%)" offset="0.601562"/><stop stop-opacity="1" stop-color="rgb(34.963989%, 34.963989%, 36.157227%)" offset="0.605469"/><stop stop-opacity="1" stop-color="rgb(34.898376%, 34.898376%, 35.891724%)" offset="0.609375"/><stop stop-opacity="1" stop-color="rgb(34.701538%, 34.701538%, 35.501099%)" offset="0.621094"/><stop stop-opacity="1" stop-color="rgb(34.312439%, 34.312439%, 35.302734%)" offset="0.632812"/><stop stop-opacity="1" stop-color="rgb(34.107971%, 34.107971%, 35.197449%)" offset="0.640625"/><stop stop-opacity="1" stop-color="rgb(33.990479%, 33.990479%, 34.997559%)" offset="0.644531"/><stop stop-opacity="1" stop-color="rgb(33.790588%, 33.790588%, 34.794617%)" offset="0.652344"/><stop stop-opacity="1" stop-color="rgb(33.599854%, 33.599854%, 34.594727%)" offset="0.660156"/><stop stop-opacity="1" stop-color="rgb(33.399963%, 33.399963%, 34.403992%)" offset="0.667969"/><stop stop-opacity="1" stop-color="rgb(33.209229%, 33.209229%, 34.204102%)" offset="0.675781"/><stop stop-opacity="1" stop-color="rgb(33.009338%, 33.009338%, 34.00116%)" offset="0.683594"/><stop stop-opacity="1" stop-color="rgb(32.794189%, 32.794189%, 33.80127%)" offset="0.691406"/><stop stop-opacity="1" stop-color="rgb(32.594299%, 32.594299%, 33.598328%)" offset="0.699219"/><stop stop-opacity="1" stop-color="rgb(32.348633%, 32.348633%, 33.306885%)" offset="0.707031"/><stop stop-opacity="1" stop-color="rgb(32.099915%, 32.099915%, 33.007812%)" offset="0.722656"/><stop stop-opacity="1" stop-color="rgb(31.900024%, 31.900024%, 32.792664%)" offset="0.730469"/><stop stop-opacity="1" stop-color="rgb(31.799316%, 31.697083%, 32.514954%)" offset="0.738281"/><stop stop-opacity="1" stop-color="rgb(31.70166%, 31.497192%, 32.272339%)" offset="0.746094"/><stop stop-opacity="1" stop-color="rgb(31.506348%, 31.399536%, 32.199097%)" offset="0.753906"/><stop stop-opacity="1" stop-color="rgb(31.341553%, 31.336975%, 32.136536%)" offset="0.757812"/><stop stop-opacity="1" stop-color="rgb(31.210327%, 31.210327%, 32.009888%)" offset="0.761719"/><stop stop-opacity="1" stop-color="rgb(31.079102%, 31.079102%, 31.880188%)" offset="0.765625"/><stop stop-opacity="1" stop-color="rgb(30.944824%, 30.944824%, 31.744385%)" offset="0.769531"/><stop stop-opacity="1" stop-color="rgb(30.802917%, 30.802917%, 31.602478%)" offset="0.773438"/><stop stop-opacity="1" stop-color="rgb(30.665588%, 30.661011%, 31.460571%)" offset="0.777344"/><stop stop-opacity="1" stop-color="rgb(30.599976%, 30.395508%, 31.195068%)" offset="0.78125"/><stop stop-opacity="1" stop-color="rgb(30.404663%, 30.198669%, 30.999756%)" offset="0.792969"/><stop stop-opacity="1" stop-color="rgb(30.13916%, 30.133057%, 30.934143%)" offset="0.804688"/><stop stop-opacity="1" stop-color="rgb(29.997253%, 29.997253%, 30.796814%)" offset="0.808594"/><stop stop-opacity="1" stop-color="rgb(29.862976%, 29.852295%, 30.662537%)" offset="0.8125"/><stop stop-opacity="1" stop-color="rgb(29.792786%, 29.588318%, 30.593872%)" offset="0.816406"/><stop stop-opacity="1" stop-color="rgb(29.592896%, 29.397583%, 30.392456%)" offset="0.824219"/><stop stop-opacity="1" stop-color="rgb(29.399109%, 29.202271%, 30.001831%)" offset="0.832031"/><stop stop-opacity="1" stop-color="rgb(29.206848%, 29.00238%, 29.801941%)" offset="0.839844"/><stop stop-opacity="1" stop-color="rgb(29.006958%, 28.897095%, 29.696655%)" offset="0.847656"/><stop stop-opacity="1" stop-color="rgb(28.889465%, 28.697205%, 29.496765%)" offset="0.851562"/><stop stop-opacity="1" stop-color="rgb(28.689575%, 28.494263%, 29.293823%)" offset="0.859375"/><stop stop-opacity="1" stop-color="rgb(28.49884%, 28.294373%, 29.093933%)" offset="0.867188"/><stop stop-opacity="1" stop-color="rgb(28.29895%, 28.005981%, 28.805542%)" offset="0.875"/><stop stop-opacity="1" stop-color="rgb(28.134155%, 27.757263%, 28.541565%)" offset="0.890625"/><stop stop-opacity="1" stop-color="rgb(27.998352%, 27.648926%, 28.399658%)" offset="0.894531"/><stop stop-opacity="1" stop-color="rgb(27.859497%, 27.542114%, 28.257751%)" offset="0.898438"/><stop stop-opacity="1" stop-color="rgb(27.644348%, 27.293396%, 27.993774%)" offset="0.902344"/><stop stop-opacity="1" stop-color="rgb(27.49939%, 27.099609%, 27.799988%)" offset="0.914062"/><stop stop-opacity="1" stop-color="rgb(27.307129%, 26.907349%, 27.655029%)" offset="0.921875"/><stop stop-opacity="1" stop-color="rgb(27.107239%, 26.707458%, 27.505493%)" offset="0.929688"/><stop stop-opacity="1" stop-color="rgb(27.001953%, 26.602173%, 27.401733%)" offset="0.9375"/><stop stop-opacity="1" stop-color="rgb(26.795959%, 26.400757%, 27.201843%)" offset="0.941406"/><stop stop-opacity="1" stop-color="rgb(26.493835%, 26.296997%, 27.098083%)" offset="0.945312"/><stop stop-opacity="1" stop-color="rgb(26.298523%, 26.101685%, 26.902771%)" offset="0.957031"/><stop stop-opacity="1" stop-color="rgb(26.107788%, 25.71106%, 26.512146%)" offset="0.964844"/><stop stop-opacity="1" stop-color="rgb(25.898743%, 25.497437%, 26.298523%)" offset="0.972656"/><stop stop-opacity="1" stop-color="rgb(25.689697%, 25.289917%, 26.089478%)" offset="0.984375"/><stop stop-opacity="1" stop-color="rgb(25.498962%, 25.099182%, 25.898743%)" offset="1"/></radialGradient><clipPath id="7898d330e6"><path d="M 208.789062 155.5 L 233.421875 155.5 L 233.421875 210.957031 L 208.789062 210.957031 Z M 208.789062 155.5 " clip-rule="nonzero"/></clipPath><clipPath id="12165e5cd1"><path d="M 132.113281 134.207031 L 243.097656 134.207031 L 243.097656 201.796875 L 132.113281 201.796875 Z M 132.113281 134.207031 " clip-rule="nonzero"/></clipPath></defs><rect x="-37.5" width="450" fill="#ffffff" y="-37.499999" height="449.999989" fill-opacity="1"/><rect x="-37.5" width="450" fill="#1f2229" y="-37.499999" height="449.999989" fill-opacity="1"/><path fill="#88a7fe" d="M 83.613281 64.722656 L 277.910156 64.722656 C 279.191406 64.722656 280.472656 64.785156 281.746094 64.910156 C 283.023438 65.035156 284.289062 65.222656 285.546875 65.472656 C 286.800781 65.722656 288.042969 66.035156 289.269531 66.40625 C 290.496094 66.777344 291.703125 67.210938 292.886719 67.699219 C 294.070312 68.191406 295.226562 68.738281 296.355469 69.339844 C 297.488281 69.945312 298.585938 70.601562 299.652344 71.316406 C 300.714844 72.027344 301.746094 72.789062 302.734375 73.601562 C 303.726562 74.414062 304.675781 75.273438 305.582031 76.179688 C 306.488281 77.085938 307.347656 78.035156 308.160156 79.023438 C 308.972656 80.015625 309.734375 81.042969 310.445312 82.105469 C 311.160156 83.171875 311.816406 84.269531 312.421875 85.398438 C 313.023438 86.53125 313.570312 87.6875 314.0625 88.871094 C 314.554688 90.054688 314.984375 91.257812 315.355469 92.484375 C 315.726562 93.710938 316.039062 94.953125 316.289062 96.207031 C 316.539062 97.464844 316.726562 98.730469 316.851562 100.003906 C 316.976562 101.28125 317.042969 102.558594 317.042969 103.839844 L 317.042969 257.609375 C 317.042969 258.890625 316.976562 260.171875 316.851562 261.445312 C 316.726562 262.71875 316.539062 263.984375 316.289062 265.242188 C 316.039062 266.5 315.726562 267.738281 315.355469 268.964844 C 314.984375 270.191406 314.554688 271.398438 314.0625 272.582031 C 313.570312 273.765625 313.023438 274.921875 312.421875 276.050781 C 311.816406 277.179688 311.160156 278.277344 310.445312 279.34375 C 309.734375 280.410156 308.972656 281.4375 308.160156 282.425781 C 307.347656 283.417969 306.488281 284.363281 305.582031 285.269531 C 304.675781 286.175781 303.726562 287.035156 302.734375 287.847656 C 301.746094 288.660156 300.714844 289.425781 299.652344 290.136719 C 298.585938 290.847656 297.488281 291.503906 296.355469 292.109375 C 295.226562 292.714844 294.070312 293.261719 292.886719 293.75 C 291.703125 294.242188 290.496094 294.671875 289.269531 295.042969 C 288.042969 295.414062 286.800781 295.726562 285.546875 295.976562 C 284.289062 296.226562 283.023438 296.414062 281.746094 296.539062 C 280.472656 296.664062 279.191406 296.726562 277.910156 296.726562 L 83.613281 296.726562 C 82.332031 296.726562 81.050781 296.664062 79.777344 296.539062 C 78.5 296.414062 77.234375 296.226562 75.980469 295.976562 C 74.722656 295.726562 73.480469 295.414062 72.253906 295.042969 C 71.027344 294.671875 69.820312 294.242188 68.636719 293.75 C 67.453125 293.261719 66.296875 292.714844 65.167969 292.109375 C 64.035156 291.503906 62.9375 290.847656 61.875 290.136719 C 60.808594 289.425781 59.78125 288.660156 58.789062 287.847656 C 57.796875 287.035156 56.851562 286.175781 55.945312 285.269531 C 55.039062 284.363281 54.175781 283.417969 53.363281 282.425781 C 52.550781 281.4375 51.789062 280.410156 51.078125 279.34375 C 50.363281 278.277344 49.707031 277.179688 49.101562 276.050781 C 48.5 274.921875 47.953125 273.765625 47.460938 272.582031 C 46.972656 271.398438 46.539062 270.191406 46.167969 268.964844 C 45.796875 267.738281 45.484375 266.5 45.234375 265.242188 C 44.984375 263.984375 44.796875 262.71875 44.671875 261.445312 C 44.546875 260.171875 44.484375 258.890625 44.484375 257.609375 L 44.484375 103.839844 C 44.484375 102.558594 44.546875 101.28125 44.671875 100.003906 C 44.796875 98.730469 44.984375 97.464844 45.234375 96.207031 C 45.484375 94.953125 45.796875 93.710938 46.167969 92.484375 C 46.539062 91.257812 46.972656 90.054688 47.460938 88.871094 C 47.953125 87.6875 48.5 86.53125 49.101562 85.398438 C 49.707031 84.269531 50.363281 83.171875 51.078125 82.105469 C 51.789062 81.042969 52.550781 80.015625 53.363281 79.023438 C 54.175781 78.035156 55.039062 77.085938 55.945312 76.179688 C 56.851562 75.273438 57.796875 74.414062 58.789062 73.601562 C 59.78125 72.789062 60.808594 72.027344 61.875 71.316406 C 62.9375 70.601562 64.035156 69.945312 65.167969 69.339844 C 66.296875 68.738281 67.453125 68.191406 68.636719 67.699219 C 69.820312 67.210938 71.027344 66.777344 72.253906 66.40625 C 73.480469 66.035156 74.722656 65.722656 75.980469 65.472656 C 77.234375 65.222656 78.5 65.035156 79.777344 64.910156 C 81.050781 64.785156 82.332031 64.722656 83.613281 64.722656 Z M 83.613281 64.722656 " fill-opacity="1" fill-rule="nonzero"/><g clip-path="url(#d6ef2219e1)"><path stroke-linecap="butt" transform="matrix(2.698598, 0, 0, 2.697742, 43.133373, 63.373546)" fill="none" stroke-linejoin="miter" d="M 15.000348 0.500089 L 86.999542 0.500089 C 87.474326 0.500089 87.94911 0.523256 88.420998 0.569591 C 88.894334 0.615926 89.363328 0.685429 89.829426 0.778099 C 90.294077 0.870769 90.754386 0.986607 91.208904 1.124164 C 91.663423 1.261721 92.110704 1.422446 92.549299 1.603442 C 92.987895 1.785886 93.416358 1.988602 93.834689 2.211589 C 94.254467 2.436025 94.661218 2.679284 95.056388 2.944262 C 95.450111 3.207793 95.832254 3.490147 96.198474 3.791325 C 96.566142 4.092502 96.917887 4.411056 97.25371 4.746985 C 97.589532 5.082914 97.907985 5.434771 98.209067 5.801107 C 98.510149 6.168892 98.792414 6.549708 99.055861 6.943556 C 99.320756 7.338851 99.563937 7.745731 99.788302 8.164194 C 100.011218 8.584106 100.21387 9.012705 100.396256 9.45144 C 100.578643 9.890175 100.737869 10.33615 100.875382 10.790812 C 101.012896 11.245475 101.128697 11.705929 101.221337 12.170728 C 101.313978 12.636974 101.383459 13.106116 101.429779 13.578155 C 101.476099 14.051641 101.500707 14.525127 101.500707 15.000061 L 101.500707 71.999405 C 101.500707 72.474339 101.476099 72.949273 101.429779 73.421312 C 101.383459 73.89335 101.313978 74.362492 101.221337 74.828738 C 101.128697 75.294985 101.012896 75.753991 100.875382 76.208654 C 100.737869 76.663317 100.578643 77.110739 100.396256 77.549474 C 100.21387 77.988209 100.011218 78.416808 99.788302 78.835272 C 99.563937 79.253735 99.320756 79.660615 99.055861 80.055911 C 98.792414 80.451206 98.510149 80.832023 98.209067 81.198359 C 97.907985 81.566143 97.589532 81.916552 97.25371 82.252481 C 96.917887 82.58841 96.566142 82.906964 96.198474 83.208142 C 95.832254 83.509319 95.450111 83.793121 95.056388 84.056652 C 94.661218 84.320183 94.254467 84.563442 93.834689 84.787877 C 93.416358 85.012312 92.987895 85.215028 92.549299 85.396024 C 92.110704 85.578469 91.663423 85.737745 91.208904 85.875302 C 90.754386 86.01286 90.294077 86.128697 89.829426 86.221367 C 89.363328 86.314037 88.894334 86.38354 88.420998 86.429875 C 87.94911 86.47621 87.474326 86.499378 86.999542 86.499378 L 15.000348 86.499378 C 14.525565 86.499378 14.050781 86.47621 13.578892 86.429875 C 13.105556 86.38354 12.636563 86.314037 12.171912 86.221367 C 11.705813 86.128697 11.245505 86.01286 10.790986 85.875302 C 10.336468 85.737745 9.889187 85.578469 9.450591 85.396024 C 9.011995 85.215028 8.583532 85.012312 8.165202 84.787877 C 7.745423 84.563442 7.338673 84.320183 6.94495 84.056652 C 6.549779 83.793121 6.169084 83.509319 5.801416 83.208142 C 5.433748 82.906964 5.083451 82.58841 4.747628 82.252481 C 4.411806 81.916552 4.091906 81.566143 3.790824 81.198359 C 3.489741 80.832023 3.207477 80.451206 2.94403 80.055911 C 2.679135 79.660615 2.435953 79.253735 2.211589 78.835272 C 1.988672 78.416808 1.786021 77.988209 1.603634 77.549474 C 1.422696 77.110739 1.262022 76.663317 1.124508 76.208654 C 0.986995 75.753991 0.871194 75.294985 0.778553 74.828738 C 0.685913 74.362492 0.616432 73.89335 0.570112 73.421312 C 0.523791 72.949273 0.500631 72.474339 0.500631 71.999405 L 0.500631 15.000061 C 0.500631 14.525127 0.523791 14.051641 0.570112 13.578155 C 0.616432 13.106116 0.685913 12.636974 0.778553 12.170728 C 0.871194 11.705929 0.986995 11.245475 1.124508 10.790812 C 1.262022 10.33615 1.422696 9.890175 1.603634 9.45144 C 1.786021 9.012705 1.988672 8.584106 2.211589 8.164194 C 2.435953 7.745731 2.679135 7.338851 2.94403 6.943556 C 3.207477 6.549708 3.489741 6.168892 3.790824 5.801107 C 4.091906 5.434771 4.411806 5.082914 4.747628 4.746985 C 5.083451 4.411056 5.433748 4.092502 5.801416 3.791325 C 6.169084 3.490147 6.549779 3.207793 6.94495 2.944262 C 7.338673 2.679284 7.745423 2.436025 8.165202 2.211589 C 8.583532 1.988602 9.011995 1.785886 9.450591 1.603442 C 9.889187 1.422446 10.336468 1.261721 10.790986 1.124164 C 11.245505 0.986607 11.705813 0.870769 12.171912 0.778099 C 12.636563 0.685429 13.105556 0.615926 13.578892 0.569591 C 14.050781 0.523256 14.525565 0.500089 15.000348 0.500089 Z M 15.000348 0.500089 " stroke="#000000" stroke-width="1" stroke-opacity="1" stroke-miterlimit="4"/></g><path fill="#ffffff" d="M 97.105469 78.210938 L 291.40625 78.210938 C 292.6875 78.210938 293.964844 78.273438 295.238281 78.398438 C 296.515625 78.523438 297.78125 78.710938 299.039062 78.960938 C 300.296875 79.210938 301.535156 79.523438 302.761719 79.894531 C 303.988281 80.265625 305.195312 80.699219 306.378906 81.1875 C 307.5625 81.679688 308.71875 82.226562 309.851562 82.828125 C 310.980469 83.433594 312.078125 84.09375 313.144531 84.804688 C 314.210938 85.515625 315.238281 86.277344 316.226562 87.089844 C 317.21875 87.902344 318.167969 88.761719 319.074219 89.667969 C 319.980469 90.574219 320.839844 91.523438 321.652344 92.511719 C 322.464844 93.503906 323.226562 94.53125 323.941406 95.597656 C 324.652344 96.660156 325.308594 97.757812 325.914062 98.886719 C 326.519531 100.019531 327.066406 101.175781 327.554688 102.359375 C 328.046875 103.542969 328.476562 104.746094 328.847656 105.972656 C 329.222656 107.199219 329.53125 108.441406 329.78125 109.695312 C 330.03125 110.953125 330.21875 112.21875 330.34375 113.496094 C 330.472656 114.769531 330.535156 116.046875 330.535156 117.328125 L 330.535156 271.101562 C 330.535156 272.378906 330.472656 273.660156 330.34375 274.933594 C 330.21875 276.207031 330.03125 277.472656 329.78125 278.730469 C 329.53125 279.988281 329.222656 281.230469 328.847656 282.453125 C 328.476562 283.679688 328.046875 284.886719 327.554688 286.070312 C 327.066406 287.253906 326.519531 288.410156 325.914062 289.539062 C 325.308594 290.667969 324.652344 291.765625 323.941406 292.832031 C 323.226562 293.898438 322.464844 294.925781 321.652344 295.914062 C 320.839844 296.90625 319.980469 297.855469 319.074219 298.757812 C 318.167969 299.664062 317.21875 300.523438 316.226562 301.335938 C 315.238281 302.152344 314.210938 302.914062 313.144531 303.625 C 312.078125 304.335938 310.980469 304.992188 309.851562 305.597656 C 308.71875 306.203125 307.5625 306.75 306.378906 307.238281 C 305.195312 307.730469 303.988281 308.160156 302.761719 308.53125 C 301.535156 308.90625 300.296875 309.214844 299.039062 309.464844 C 297.78125 309.714844 296.515625 309.902344 295.238281 310.027344 C 293.964844 310.152344 292.6875 310.21875 291.40625 310.21875 L 97.105469 310.21875 C 95.824219 310.21875 94.546875 310.152344 93.269531 310.027344 C 91.996094 309.902344 90.726562 309.714844 89.472656 309.464844 C 88.214844 309.214844 86.972656 308.90625 85.746094 308.53125 C 84.519531 308.160156 83.316406 307.730469 82.132812 307.238281 C 80.945312 306.75 79.789062 306.203125 78.660156 305.597656 C 77.53125 304.992188 76.429688 304.335938 75.367188 303.625 C 74.300781 302.914062 73.273438 302.152344 72.28125 301.335938 C 71.292969 300.523438 70.34375 299.664062 69.4375 298.757812 C 68.53125 297.855469 67.671875 296.90625 66.859375 295.914062 C 66.042969 294.925781 65.28125 293.898438 64.570312 292.832031 C 63.859375 291.765625 63.199219 290.667969 62.597656 289.539062 C 61.992188 288.410156 61.445312 287.253906 60.953125 286.070312 C 60.464844 284.886719 60.03125 283.679688 59.660156 282.453125 C 59.289062 281.230469 58.976562 279.988281 58.726562 278.730469 C 58.476562 277.472656 58.289062 276.207031 58.164062 274.933594 C 58.039062 273.660156 57.976562 272.378906 57.976562 271.101562 L 57.976562 117.328125 C 57.976562 116.046875 58.039062 114.769531 58.164062 113.496094 C 58.289062 112.21875 58.476562 110.953125 58.726562 109.695312 C 58.976562 108.441406 59.289062 107.199219 59.660156 105.972656 C 60.03125 104.746094 60.464844 103.542969 60.953125 102.359375 C 61.445312 101.175781 61.992188 100.019531 62.597656 98.886719 C 63.199219 97.757812 63.859375 96.660156 64.570312 95.597656 C 65.28125 94.53125 66.042969 93.503906 66.859375 92.511719 C 67.671875 91.523438 68.53125 90.574219 69.4375 89.667969 C 70.34375 88.761719 71.292969 87.902344 72.28125 87.089844 C 73.273438 86.277344 74.300781 85.515625 75.367188 84.804688 C 76.429688 84.09375 77.53125 83.433594 78.660156 82.828125 C 79.789062 82.226562 80.945312 81.679688 82.132812 81.1875 C 83.316406 80.699219 84.519531 80.265625 85.746094 79.894531 C 86.972656 79.523438 88.214844 79.210938 89.472656 78.960938 C 90.726562 78.710938 91.996094 78.523438 93.269531 78.398438 C 94.546875 78.273438 95.824219 78.210938 97.105469 78.210938 Z M 97.105469 78.210938 " fill-opacity="1" fill-rule="nonzero"/><g clip-path="url(#938ae063ee)"><path stroke-linecap="butt" transform="matrix(2.698598, 0, 0, 2.697742, 43.133373, 63.373546)" fill="none" stroke-linejoin="miter" d="M 20.000051 5.499929 L 92.000693 5.499929 C 92.475476 5.499929 92.948812 5.523097 93.420701 5.569432 C 93.894037 5.615767 94.363031 5.68527 94.829129 5.77794 C 95.295228 5.87061 95.754089 5.986447 96.208607 6.124004 C 96.663125 6.261562 97.110406 6.422286 97.549002 6.603283 C 97.987598 6.785727 98.416061 6.988443 98.835839 7.21143 C 99.25417 7.435865 99.660921 7.680572 100.056091 7.944103 C 100.451262 8.207633 100.831957 8.489988 101.198177 8.791165 C 101.565845 9.092343 101.91759 9.410897 102.253413 9.746826 C 102.589235 10.082755 102.907688 10.434612 103.20877 10.800948 C 103.509852 11.168732 103.792117 11.549549 104.057011 11.944844 C 104.320458 12.338692 104.56364 12.745572 104.788004 13.164035 C 105.012369 13.583947 105.21502 14.012546 105.395959 14.451281 C 105.578345 14.890016 105.737572 15.33599 105.875085 15.790653 C 106.014046 16.245316 106.128399 16.70577 106.22104 17.170569 C 106.313681 17.636815 106.383161 18.105957 106.429482 18.579443 C 106.47725 19.051482 106.50041 19.524968 106.50041 19.999902 L 106.50041 77.000694 C 106.50041 77.47418 106.47725 77.949114 106.429482 78.421152 C 106.383161 78.893191 106.313681 79.362333 106.22104 79.828579 C 106.128399 80.294826 106.014046 80.75528 105.875085 81.208495 C 105.737572 81.663157 105.578345 82.11058 105.395959 82.549315 C 105.21502 82.98805 105.012369 83.416649 104.788004 83.835113 C 104.56364 84.253576 104.320458 84.660456 104.057011 85.055751 C 103.792117 85.451047 103.509852 85.831863 103.20877 86.1982 C 102.907688 86.565984 102.589235 86.917841 102.253413 87.252322 C 101.91759 87.588251 101.565845 87.906805 101.198177 88.207982 C 100.831957 88.510608 100.451262 88.792962 100.056091 89.056493 C 99.660921 89.320023 99.25417 89.563282 98.835839 89.787718 C 98.416061 90.012153 97.987598 90.214869 97.549002 90.395865 C 97.110406 90.578309 96.663125 90.737586 96.208607 90.875143 C 95.754089 91.014148 95.295228 91.128538 94.829129 91.221208 C 94.363031 91.313878 93.894037 91.383381 93.420701 91.429716 C 92.948812 91.476051 92.475476 91.500666 92.000693 91.500666 L 20.000051 91.500666 C 19.525267 91.500666 19.051931 91.476051 18.578595 91.429716 C 18.106707 91.383381 17.636266 91.313878 17.171615 91.221208 C 16.705516 91.128538 16.245208 91.014148 15.790689 90.875143 C 15.336171 90.737586 14.890337 90.578309 14.451742 90.395865 C 14.011698 90.214869 13.583235 90.012153 13.164904 89.787718 C 12.746574 89.563282 12.338376 89.320023 11.944653 89.056493 C 11.549482 88.792962 11.168787 88.510608 10.801119 88.207982 C 10.434899 87.906805 10.083154 87.588251 9.747331 87.252322 C 9.411508 86.917841 9.093056 86.565984 8.791974 86.1982 C 8.489444 85.831863 8.207179 85.451047 7.943732 85.055751 C 7.680285 84.660456 7.435656 84.253576 7.212739 83.835113 C 6.988375 83.416649 6.785724 82.98805 6.603337 82.549315 C 6.422398 82.11058 6.261725 81.663157 6.124211 81.208495 C 5.986698 80.75528 5.870897 80.294826 5.778256 79.828579 C 5.685615 79.362333 5.616135 78.893191 5.569814 78.421152 C 5.523494 77.949114 5.500334 77.47418 5.500334 77.000694 L 5.500334 19.999902 C 5.500334 19.524968 5.523494 19.051482 5.569814 18.579443 C 5.616135 18.105957 5.685615 17.636815 5.778256 17.170569 C 5.870897 16.70577 5.986698 16.245316 6.124211 15.790653 C 6.261725 15.33599 6.422398 14.890016 6.603337 14.451281 C 6.785724 14.012546 6.988375 13.583947 7.212739 13.164035 C 7.435656 12.745572 7.680285 12.338692 7.943732 11.944844 C 8.207179 11.549549 8.489444 11.168732 8.791974 10.800948 C 9.093056 10.434612 9.411508 10.082755 9.747331 9.746826 C 10.083154 9.410897 10.434899 9.092343 10.801119 8.791165 C 11.168787 8.489988 11.549482 8.207633 11.944653 7.944103 C 12.338376 7.680572 12.746574 7.435865 13.164904 7.21143 C 13.583235 6.988443 14.011698 6.785727 14.451742 6.603283 C 14.890337 6.422286 15.336171 6.261562 15.790689 6.124004 C 16.245208 5.986447 16.705516 5.87061 17.171615 5.77794 C 17.636266 5.68527 18.106707 5.615767 18.578595 5.569432 C 19.051931 5.523097 19.525267 5.499929 20.000051 5.499929 Z M 20.000051 5.499929 " stroke="#000000" stroke-width="1" stroke-opacity="1" stroke-miterlimit="4"/></g><g clip-path="url(#f407cc8a55)"><path fill="#2761ff" d="M 166.40625 192.355469 L 166.40625 210.957031 L 141.828125 210.957031 L 141.828125 193.789062 C 141.957031 193.820312 142.089844 193.851562 142.222656 193.882812 C 144.59375 194.4375 147.480469 195.054688 149.34375 195.441406 C 150.496094 195.683594 151.253906 195.835938 151.253906 195.835938 C 151.253906 195.835938 151.964844 195.679688 153.183594 195.410156 C 155.863281 194.816406 161.003906 193.65625 166.40625 192.355469 " fill-opacity="1" fill-rule="nonzero"/></g><g clip-path="url(#2acf8be6fa)"><g clip-path="url(#79fc892048)"><g clip-path="url(#fe15158e1f)"><path fill="url(#8894b1680a)" d="M 141.824219 104.460938 L 141.824219 188.832031 L 230.660156 188.832031 L 230.660156 104.460938 Z M 141.824219 104.460938 " fill-rule="nonzero"/></g></g></g><g clip-path="url(#7898d330e6)"><path fill="#2761ff" d="M 233.40625 155.601562 L 233.40625 210.957031 L 208.824219 210.957031 L 208.824219 175.066406 C 210.960938 174.109375 212.410156 173.503906 212.617188 173.507812 C 213.394531 173.527344 229.3125 159.277344 233.40625 155.601562 " fill-opacity="1" fill-rule="nonzero"/></g><path fill="#000000" d="M 139.703125 175.503906 C 139.625 175.570312 139.542969 175.632812 139.464844 175.695312 C 139.554688 175.601562 139.636719 175.535156 139.703125 175.503906 " fill-opacity="1" fill-rule="nonzero"/><path fill="#000000" d="M 166.40625 193.089844 L 166.40625 204.882812 C 162.589844 205.777344 158.90625 206.269531 155.4375 206.277344 C 150.34375 206.285156 145.648438 205.042969 141.828125 202.964844 L 141.828125 193.789062 C 141.957031 193.820312 142.089844 193.851562 142.222656 193.882812 C 144.023438 194.734375 146.351562 195.296875 149.34375 195.441406 C 150.515625 195.5 151.796875 195.492188 153.183594 195.410156 C 155.652344 195.269531 158.472656 194.894531 161.679688 194.25 C 163.261719 193.929688 164.835938 193.542969 166.40625 193.089844 " fill-opacity="1" fill-rule="nonzero"/><path fill="#000000" d="M 233.40625 155.601562 L 233.40625 160.441406 C 227.3125 167.882812 218.621094 175.988281 208.824219 183.289062 L 208.824219 175.066406 C 210.960938 174.109375 212.410156 173.503906 212.617188 173.507812 C 213.394531 173.527344 229.3125 159.277344 233.40625 155.601562 " fill-opacity="1" fill-rule="nonzero"/><g clip-path="url(#12165e5cd1)"><path fill="#2761ff" d="M 243.097656 134.25 L 239.203125 158.855469 L 234.359375 154.742188 C 225.332031 166.179688 209.851562 179.421875 193.488281 188.933594 C 180.421875 196.527344 166.792969 201.742188 155.4375 201.761719 C 149.976562 201.769531 144.972656 200.34375 141.011719 197.988281 C 131.265625 192.191406 127.828125 180.757812 139.464844 171.183594 C 137.90625 172.855469 133.386719 183.875 141.011719 188.707031 C 144.628906 190.996094 150.980469 191.890625 161.679688 189.734375 C 162.988281 189.46875 164.292969 189.160156 165.59375 188.800781 C 180.164062 184.8125 194.160156 175.300781 204.828125 166.285156 C 205.765625 165.492188 206.675781 164.707031 207.558594 163.925781 C 217.945312 154.761719 224.53125 146.695312 224.296875 146.34375 C 223.800781 145.59375 219.96875 142.84375 219.96875 142.84375 L 243.097656 134.25 " fill-opacity="1" fill-rule="nonzero"/></g><g fill="#191919" fill-opacity="1"><g transform="translate(96.320309, 251.726659)"><g><path d="M 2.09375 0 L 2.09375 -24.84375 L 9.09375 -24.84375 L 9.09375 -15.5 L 17.984375 -15.5 L 17.984375 -24.84375 L 24.984375 -24.84375 L 24.984375 0 L 17.984375 0 L 17.984375 -9.453125 L 9.09375 -9.453125 L 9.09375 0 Z M 2.09375 0 "/></g></g></g><g fill="#191919" fill-opacity="1"><g transform="translate(132.154193, 251.726659)"><g><path d="M 20.234375 -18.859375 L 9 -18.859375 L 9 -15.46875 L 19.3125 -15.46875 L 19.3125 -9.484375 L 9 -9.484375 L 9 -5.984375 L 20.515625 -5.984375 L 20.09375 0 L 2.09375 0 L 2.09375 -24.84375 L 20.234375 -24.84375 Z M 20.234375 -18.859375 "/></g></g></g><g fill="#191919" fill-opacity="1"><g transform="translate(161.724485, 251.726659)"><g><path d="M 24.921875 -4.9375 C 23.847656 -3.226562 22.375 -1.910156 20.5 -0.984375 C 18.632812 -0.0664062 16.5625 0.390625 14.28125 0.390625 C 11.476562 0.390625 9.078125 -0.0976562 7.078125 -1.078125 C 5.085938 -2.066406 3.566406 -3.476562 2.515625 -5.3125 C 1.460938 -7.15625 0.9375 -9.351562 0.9375 -11.90625 C 0.9375 -14.582031 1.515625 -16.910156 2.671875 -18.890625 C 3.828125 -20.878906 5.441406 -22.425781 7.515625 -23.53125 C 9.597656 -24.644531 12.015625 -25.203125 14.765625 -25.203125 C 17.191406 -25.203125 19.234375 -24.773438 20.890625 -23.921875 C 22.546875 -23.066406 23.898438 -21.753906 24.953125 -19.984375 L 19.671875 -16.234375 C 19.222656 -17.097656 18.53125 -17.78125 17.59375 -18.28125 C 16.664062 -18.789062 15.644531 -19.046875 14.53125 -19.046875 C 12.46875 -19.066406 10.867188 -18.425781 9.734375 -17.125 C 8.609375 -15.832031 8.046875 -14.148438 8.046875 -12.078125 C 8.046875 -10.085938 8.566406 -8.539062 9.609375 -7.4375 C 10.648438 -6.332031 12.21875 -5.78125 14.3125 -5.78125 C 16.738281 -5.78125 18.5625 -6.828125 19.78125 -8.921875 Z M 24.921875 -4.9375 "/></g></g></g><g fill="#191919" fill-opacity="1"><g transform="translate(194.724008, 251.726659)"><g><path d="M 22.5 -24.84375 L 21.484375 -18.765625 L 14.203125 -18.765625 L 14.203125 0 L 7.203125 0 L 7.203125 -18.765625 L -0.5625 -18.765625 L -0.5625 -24.84375 Z M 22.5 -24.84375 "/></g></g></g><g fill="#191919" fill-opacity="1"><g transform="translate(224.854183, 251.726659)"><g><path d="M 20.234375 -18.859375 L 9 -18.859375 L 9 -15.46875 L 19.3125 -15.46875 L 19.3125 -9.484375 L 9 -9.484375 L 9 -5.984375 L 20.515625 -5.984375 L 20.09375 0 L 2.09375 0 L 2.09375 -24.84375 L 20.234375 -24.84375 Z M 20.234375 -18.859375 "/></g></g></g><g fill="#191919" fill-opacity="1"><g transform="translate(254.424478, 251.726659)"><g><path d="M 24.921875 -4.9375 C 23.847656 -3.226562 22.375 -1.910156 20.5 -0.984375 C 18.632812 -0.0664062 16.5625 0.390625 14.28125 0.390625 C 11.476562 0.390625 9.078125 -0.0976562 7.078125 -1.078125 C 5.085938 -2.066406 3.566406 -3.476562 2.515625 -5.3125 C 1.460938 -7.15625 0.9375 -9.351562 0.9375 -11.90625 C 0.9375 -14.582031 1.515625 -16.910156 2.671875 -18.890625 C 3.828125 -20.878906 5.441406 -22.425781 7.515625 -23.53125 C 9.597656 -24.644531 12.015625 -25.203125 14.765625 -25.203125 C 17.191406 -25.203125 19.234375 -24.773438 20.890625 -23.921875 C 22.546875 -23.066406 23.898438 -21.753906 24.953125 -19.984375 L 19.671875 -16.234375 C 19.222656 -17.097656 18.53125 -17.78125 17.59375 -18.28125 C 16.664062 -18.789062 15.644531 -19.046875 14.53125 -19.046875 C 12.46875 -19.066406 10.867188 -18.425781 9.734375 -17.125 C 8.609375 -15.832031 8.046875 -14.148438 8.046875 -12.078125 C 8.046875 -10.085938 8.566406 -8.539062 9.609375 -7.4375 C 10.648438 -6.332031 12.21875 -5.78125 14.3125 -5.78125 C 16.738281 -5.78125 18.5625 -6.828125 19.78125 -8.921875 Z M 24.921875 -4.9375 "/></g></g></g><g fill="#191919" fill-opacity="1"><g transform="translate(151.962607, 267.257531)"><g><path d="M 2.875 0.0625 C 2.382812 0.0625 1.914062 -0.015625 1.46875 -0.171875 C 1.03125 -0.328125 0.6875 -0.535156 0.4375 -0.796875 L 0.71875 -1.328125 C 0.945312 -1.085938 1.257812 -0.894531 1.65625 -0.75 C 2.050781 -0.601562 2.457031 -0.53125 2.875 -0.53125 C 3.46875 -0.53125 3.910156 -0.640625 4.203125 -0.859375 C 4.492188 -1.078125 4.640625 -1.359375 4.640625 -1.703125 C 4.640625 -1.960938 4.554688 -2.171875 4.390625 -2.328125 C 4.234375 -2.484375 4.039062 -2.601562 3.8125 -2.6875 C 3.582031 -2.769531 3.257812 -2.863281 2.84375 -2.96875 C 2.351562 -3.09375 1.960938 -3.210938 1.671875 -3.328125 C 1.378906 -3.441406 1.125 -3.613281 0.90625 -3.84375 C 0.695312 -4.082031 0.59375 -4.40625 0.59375 -4.8125 C 0.59375 -5.144531 0.679688 -5.445312 0.859375 -5.71875 C 1.035156 -5.988281 1.304688 -6.207031 1.671875 -6.375 C 2.035156 -6.539062 2.484375 -6.625 3.015625 -6.625 C 3.390625 -6.625 3.753906 -6.570312 4.109375 -6.46875 C 4.472656 -6.363281 4.785156 -6.21875 5.046875 -6.03125 L 4.8125 -5.484375 C 4.539062 -5.660156 4.25 -5.796875 3.9375 -5.890625 C 3.625 -5.984375 3.316406 -6.03125 3.015625 -6.03125 C 2.441406 -6.03125 2.007812 -5.914062 1.71875 -5.6875 C 1.425781 -5.46875 1.28125 -5.1875 1.28125 -4.84375 C 1.28125 -4.570312 1.359375 -4.359375 1.515625 -4.203125 C 1.679688 -4.046875 1.882812 -3.925781 2.125 -3.84375 C 2.363281 -3.757812 2.6875 -3.664062 3.09375 -3.5625 C 3.570312 -3.445312 3.957031 -3.328125 4.25 -3.203125 C 4.550781 -3.085938 4.804688 -2.910156 5.015625 -2.671875 C 5.222656 -2.441406 5.328125 -2.128906 5.328125 -1.734375 C 5.328125 -1.398438 5.238281 -1.097656 5.0625 -0.828125 C 4.882812 -0.554688 4.609375 -0.335938 4.234375 -0.171875 C 3.867188 -0.015625 3.414062 0.0625 2.875 0.0625 Z M 2.875 0.0625 "/></g></g></g><g fill="#191919" fill-opacity="1"><g transform="translate(159.604634, 267.257531)"><g><path d="M 3.9375 0.0625 C 3.289062 0.0625 2.703125 -0.0820312 2.171875 -0.375 C 1.640625 -0.664062 1.222656 -1.0625 0.921875 -1.5625 C 0.628906 -2.070312 0.484375 -2.644531 0.484375 -3.28125 C 0.484375 -3.914062 0.628906 -4.484375 0.921875 -4.984375 C 1.222656 -5.492188 1.640625 -5.894531 2.171875 -6.1875 C 2.703125 -6.476562 3.289062 -6.625 3.9375 -6.625 C 4.582031 -6.625 5.164062 -6.476562 5.6875 -6.1875 C 6.21875 -5.894531 6.628906 -5.492188 6.921875 -4.984375 C 7.222656 -4.484375 7.375 -3.914062 7.375 -3.28125 C 7.375 -2.644531 7.222656 -2.070312 6.921875 -1.5625 C 6.628906 -1.0625 6.21875 -0.664062 5.6875 -0.375 C 5.164062 -0.0820312 4.582031 0.0625 3.9375 0.0625 Z M 3.9375 -0.5625 C 4.457031 -0.5625 4.925781 -0.675781 5.34375 -0.90625 C 5.757812 -1.144531 6.085938 -1.472656 6.328125 -1.890625 C 6.566406 -2.304688 6.6875 -2.769531 6.6875 -3.28125 C 6.6875 -3.789062 6.566406 -4.253906 6.328125 -4.671875 C 6.085938 -5.085938 5.757812 -5.410156 5.34375 -5.640625 C 4.925781 -5.878906 4.457031 -6 3.9375 -6 C 3.414062 -6 2.941406 -5.878906 2.515625 -5.640625 C 2.097656 -5.410156 1.769531 -5.085938 1.53125 -4.671875 C 1.289062 -4.253906 1.171875 -3.789062 1.171875 -3.28125 C 1.171875 -2.769531 1.289062 -2.304688 1.53125 -1.890625 C 1.769531 -1.472656 2.097656 -1.144531 2.515625 -0.90625 C 2.941406 -0.675781 3.414062 -0.5625 3.9375 -0.5625 Z M 3.9375 -0.5625 "/></g></g></g><g fill="#191919" fill-opacity="1"><g transform="translate(169.346665, 267.257531)"><g><path d="M 1.0625 -6.5625 L 1.765625 -6.5625 L 1.765625 -0.59375 L 5.4375 -0.59375 L 5.4375 0 L 1.0625 0 Z M 1.0625 -6.5625 "/></g></g></g><g fill="#191919" fill-opacity="1"><g transform="translate(176.744946, 267.257531)"><g><path d="M 3.71875 0.0625 C 2.863281 0.0625 2.195312 -0.179688 1.71875 -0.671875 C 1.25 -1.160156 1.015625 -1.867188 1.015625 -2.796875 L 1.015625 -6.5625 L 1.703125 -6.5625 L 1.703125 -2.828125 C 1.703125 -2.066406 1.875 -1.5 2.21875 -1.125 C 2.5625 -0.75 3.0625 -0.5625 3.71875 -0.5625 C 4.375 -0.5625 4.875 -0.75 5.21875 -1.125 C 5.5625 -1.5 5.734375 -2.066406 5.734375 -2.828125 L 5.734375 -6.5625 L 6.40625 -6.5625 L 6.40625 -2.796875 C 6.40625 -1.867188 6.164062 -1.160156 5.6875 -0.671875 C 5.21875 -0.179688 4.5625 0.0625 3.71875 0.0625 Z M 3.71875 0.0625 "/></g></g></g><g fill="#191919" fill-opacity="1"><g transform="translate(186.046354, 267.257531)"><g><path d="M 2.34375 -5.96875 L 0.03125 -5.96875 L 0.03125 -6.5625 L 5.34375 -6.5625 L 5.34375 -5.96875 L 3.03125 -5.96875 L 3.03125 0 L 2.34375 0 Z M 2.34375 -5.96875 "/></g></g></g><g fill="#191919" fill-opacity="1"><g transform="translate(193.304008, 267.257531)"><g><path d="M 1.0625 -6.5625 L 1.765625 -6.5625 L 1.765625 0 L 1.0625 0 Z M 1.0625 -6.5625 "/></g></g></g><g fill="#191919" fill-opacity="1"><g transform="translate(198.011644, 267.257531)"><g><path d="M 3.9375 0.0625 C 3.289062 0.0625 2.703125 -0.0820312 2.171875 -0.375 C 1.640625 -0.664062 1.222656 -1.0625 0.921875 -1.5625 C 0.628906 -2.070312 0.484375 -2.644531 0.484375 -3.28125 C 0.484375 -3.914062 0.628906 -4.484375 0.921875 -4.984375 C 1.222656 -5.492188 1.640625 -5.894531 2.171875 -6.1875 C 2.703125 -6.476562 3.289062 -6.625 3.9375 -6.625 C 4.582031 -6.625 5.164062 -6.476562 5.6875 -6.1875 C 6.21875 -5.894531 6.628906 -5.492188 6.921875 -4.984375 C 7.222656 -4.484375 7.375 -3.914062 7.375 -3.28125 C 7.375 -2.644531 7.222656 -2.070312 6.921875 -1.5625 C 6.628906 -1.0625 6.21875 -0.664062 5.6875 -0.375 C 5.164062 -0.0820312 4.582031 0.0625 3.9375 0.0625 Z M 3.9375 -0.5625 C 4.457031 -0.5625 4.925781 -0.675781 5.34375 -0.90625 C 5.757812 -1.144531 6.085938 -1.472656 6.328125 -1.890625 C 6.566406 -2.304688 6.6875 -2.769531 6.6875 -3.28125 C 6.6875 -3.789062 6.566406 -4.253906 6.328125 -4.671875 C 6.085938 -5.085938 5.757812 -5.410156 5.34375 -5.640625 C 4.925781 -5.878906 4.457031 -6 3.9375 -6 C 3.414062 -6 2.941406 -5.878906 2.515625 -5.640625 C 2.097656 -5.410156 1.769531 -5.085938 1.53125 -4.671875 C 1.289062 -4.253906 1.171875 -3.789062 1.171875 -3.28125 C 1.171875 -2.769531 1.289062 -2.304688 1.53125 -1.890625 C 1.769531 -1.472656 2.097656 -1.144531 2.515625 -0.90625 C 2.941406 -0.675781 3.414062 -0.5625 3.9375 -0.5625 Z M 3.9375 -0.5625 "/></g></g></g><g fill="#191919" fill-opacity="1"><g transform="translate(207.753672, 267.257531)"><g><path d="M 6.546875 -6.5625 L 6.546875 0 L 5.984375 0 L 1.765625 -5.328125 L 1.765625 0 L 1.0625 0 L 1.0625 -6.5625 L 1.640625 -6.5625 L 5.875 -1.234375 L 5.875 -6.5625 Z M 6.546875 -6.5625 "/></g></g></g><g fill="#191919" fill-opacity="1"><g transform="translate(217.251953, 267.257531)"><g><path d="M 2.875 0.0625 C 2.382812 0.0625 1.914062 -0.015625 1.46875 -0.171875 C 1.03125 -0.328125 0.6875 -0.535156 0.4375 -0.796875 L 0.71875 -1.328125 C 0.945312 -1.085938 1.257812 -0.894531 1.65625 -0.75 C 2.050781 -0.601562 2.457031 -0.53125 2.875 -0.53125 C 3.46875 -0.53125 3.910156 -0.640625 4.203125 -0.859375 C 4.492188 -1.078125 4.640625 -1.359375 4.640625 -1.703125 C 4.640625 -1.960938 4.554688 -2.171875 4.390625 -2.328125 C 4.234375 -2.484375 4.039062 -2.601562 3.8125 -2.6875 C 3.582031 -2.769531 3.257812 -2.863281 2.84375 -2.96875 C 2.351562 -3.09375 1.960938 -3.210938 1.671875 -3.328125 C 1.378906 -3.441406 1.125 -3.613281 0.90625 -3.84375 C 0.695312 -4.082031 0.59375 -4.40625 0.59375 -4.8125 C 0.59375 -5.144531 0.679688 -5.445312 0.859375 -5.71875 C 1.035156 -5.988281 1.304688 -6.207031 1.671875 -6.375 C 2.035156 -6.539062 2.484375 -6.625 3.015625 -6.625 C 3.390625 -6.625 3.753906 -6.570312 4.109375 -6.46875 C 4.472656 -6.363281 4.785156 -6.21875 5.046875 -6.03125 L 4.8125 -5.484375 C 4.539062 -5.660156 4.25 -5.796875 3.9375 -5.890625 C 3.625 -5.984375 3.316406 -6.03125 3.015625 -6.03125 C 2.441406 -6.03125 2.007812 -5.914062 1.71875 -5.6875 C 1.425781 -5.46875 1.28125 -5.1875 1.28125 -4.84375 C 1.28125 -4.570312 1.359375 -4.359375 1.515625 -4.203125 C 1.679688 -4.046875 1.882812 -3.925781 2.125 -3.84375 C 2.363281 -3.757812 2.6875 -3.664062 3.09375 -3.5625 C 3.570312 -3.445312 3.957031 -3.328125 4.25 -3.203125 C 4.550781 -3.085938 4.804688 -2.910156 5.015625 -2.671875 C 5.222656 -2.441406 5.328125 -2.128906 5.328125 -1.734375 C 5.328125 -1.398438 5.238281 -1.097656 5.0625 -0.828125 C 4.882812 -0.554688 4.609375 -0.335938 4.234375 -0.171875 C 3.867188 -0.015625 3.414062 0.0625 2.875 0.0625 Z M 2.875 0.0625 "/></g></g></g></svg>